<svg width="49" height="68" viewBox="0 0 49 68" fill="none" xmlns="http://www.w3.org/2000/svg">
<rect x="0.5" y="0.470581" width="48" height="67.0588" rx="5" fill="url(#paint0_linear_9301_366)"/>
<path d="M28.5967 41.4659C28.5967 41.5023 28.5967 41.5023 28.6334 41.5387C28.6334 41.5023 28.6334 41.5023 28.67 41.4659C28.67 41.4295 28.7067 41.4295 28.7067 41.3931L29.3296 40.2283C29.3296 40.1919 29.3662 40.1919 29.3662 40.1919H29.4028H29.586V42.0848H29.3662V40.7015C29.3662 40.6651 29.3662 40.6651 29.3662 40.6287C29.3662 40.5923 29.3662 40.5923 29.3662 40.5559L28.7067 41.7207C28.67 41.7572 28.67 41.7936 28.5967 41.7936H28.5601C28.5235 41.7936 28.4868 41.7572 28.4502 41.7207L27.7906 40.5559C27.7906 40.5923 27.7906 40.5923 27.7906 40.6287C27.7906 40.6651 27.7906 40.6651 27.7906 40.7015V42.0848H27.5708V40.1919H27.754C27.7906 40.1919 27.7906 40.1919 27.7906 40.1919C27.7906 40.1919 27.8273 40.1919 27.8273 40.2283L28.4868 41.3931C28.5601 41.4295 28.5601 41.4295 28.5967 41.4659Z" fill="white"/>
<path d="M32.1509 42.0848H31.9677C31.931 42.0848 31.931 42.0848 31.8944 42.0848L31.8577 42.0484L31.6745 41.6115H30.8318L30.6486 42.012C30.6486 42.012 30.6486 42.0484 30.612 42.0484C30.612 42.0484 30.5753 42.0848 30.5387 42.0848H30.3555L31.1249 40.1919H31.3814L32.1509 42.0848ZM30.9051 41.3931H31.6013L31.3081 40.6287C31.2715 40.5923 31.2715 40.5195 31.2348 40.4467C31.2348 40.4831 31.1982 40.5195 31.1982 40.5559C31.1982 40.5923 31.1616 40.6287 31.1616 40.6287L30.9051 41.3931Z" fill="white"/>
<path d="M33.1036 40.2283C33.1036 40.2283 33.1403 40.2283 33.1403 40.2647L34.2395 41.6843C34.2395 41.6479 34.2395 41.6479 34.2395 41.6115C34.2395 41.5751 34.2395 41.5751 34.2395 41.5387V40.1919H34.4593V42.0848H34.3128C34.2761 42.0848 34.2761 42.0848 34.2761 42.0848L34.2395 42.0484L33.1403 40.6287C33.1403 40.6651 33.1403 40.6651 33.1403 40.7015C33.1403 40.7379 33.1403 40.7379 33.1403 40.7743V42.1212H32.9204V40.2283H33.067C33.067 40.1919 33.067 40.1919 33.1036 40.2283Z" fill="white"/>
<path d="M36.9873 42.0848H36.8041C36.7674 42.0848 36.7674 42.0848 36.7308 42.0848L36.6942 42.0484L36.511 41.5751H35.6682L35.485 42.012C35.485 42.012 35.485 42.0484 35.4484 42.0484C35.4484 42.0484 35.4117 42.0848 35.3751 42.0848H35.1919L35.9614 40.1919H36.2178L36.9873 42.0848ZM35.7415 41.3931H36.4377L36.1446 40.6287C36.1079 40.5923 36.1079 40.5195 36.0713 40.4467C36.0713 40.4831 36.0346 40.5195 36.0346 40.5559C36.0346 40.5923 35.998 40.6287 35.998 40.6287L35.7415 41.3931Z" fill="white"/>
<path d="M38.5264 41.9027C38.563 41.9027 38.6363 41.9027 38.6729 41.9027C38.7096 41.9027 38.7462 41.9027 38.7829 41.8663C38.8195 41.8663 38.8561 41.8299 38.8928 41.8299C38.9294 41.8299 38.9661 41.7935 39.0027 41.7935V41.3931H38.7096H38.6729V41.3567V41.2111H39.2592V41.9391C39.2225 41.9755 39.1493 42.0119 39.1126 42.0119C39.076 42.0483 39.0027 42.0483 38.9294 42.0847C38.8561 42.0847 38.8195 42.1211 38.7462 42.1211C38.6729 42.1211 38.5997 42.1211 38.5264 42.1211C38.3798 42.1211 38.2699 42.0847 38.16 42.0483C38.05 42.0119 37.9401 41.9391 37.8668 41.8663C37.7936 41.7935 37.7203 41.6843 37.6836 41.5751C37.647 41.4659 37.6104 41.3203 37.6104 41.1747C37.6104 41.0291 37.647 40.8835 37.6836 40.7743C37.7203 40.6651 37.7936 40.5559 37.8668 40.4831C37.9401 40.4103 38.05 40.3375 38.16 40.3011C38.2699 40.2647 38.4164 40.2283 38.563 40.2283C38.6363 40.2283 38.7096 40.2283 38.7829 40.2283C38.8561 40.2283 38.8928 40.2647 38.9661 40.2647C39.0393 40.3011 39.076 40.3011 39.1126 40.3375C39.1493 40.3739 39.1859 40.4103 39.2592 40.4467L39.1859 40.5559C39.1859 40.5923 39.1493 40.5923 39.1126 40.5923H39.076C39.0393 40.5923 39.0393 40.5559 39.0027 40.5559C38.9661 40.5559 38.9294 40.5195 38.8928 40.5195C38.8561 40.5195 38.8195 40.4831 38.7462 40.4831C38.7096 40.4831 38.6363 40.4831 38.563 40.4831C38.4531 40.4831 38.3432 40.4831 38.2699 40.5195C38.1966 40.5559 38.1233 40.5923 38.05 40.6651C37.9768 40.7379 37.9401 40.8107 37.9035 40.8835C37.8668 40.9927 37.8668 41.0655 37.8668 41.1747C37.8668 41.2839 37.8668 41.3931 37.9035 41.5023C37.9401 41.6115 37.9768 41.6843 38.05 41.7571C38.1233 41.8299 38.1966 41.8663 38.2699 41.9027C38.3432 41.8663 38.4531 41.9027 38.5264 41.9027Z" fill="white"/>
<path d="M41.3112 40.1919V40.4103H40.3951V41.0291H41.128V41.2111H40.3951V41.8664H41.3112V42.0848H40.1753V40.1919H41.3112Z" fill="white"/>
<path d="M42.5202 41.2839V42.0848H42.2637V40.1919H42.8133C42.9232 40.1919 43.0331 40.1919 43.1064 40.2283C43.1797 40.2647 43.253 40.3011 43.3263 40.3375C43.3995 40.3739 43.4362 40.4467 43.4362 40.5195C43.4728 40.5923 43.4728 40.6651 43.4728 40.7379C43.4728 40.8107 43.4728 40.8835 43.4362 40.9199C43.3995 40.9927 43.3995 41.0291 43.3263 41.0655C43.2896 41.1019 43.253 41.1383 43.1797 41.1747C43.1064 41.2111 43.0698 41.2475 42.9965 41.2475C43.0331 41.2839 43.0698 41.2839 43.0698 41.3203L43.6194 42.0484H43.3995C43.3629 42.0484 43.3263 42.0484 43.2896 42.012L42.8133 41.3567C42.8133 41.3203 42.7766 41.3203 42.7766 41.3203C42.7766 41.3203 42.74 41.3203 42.7034 41.3203H42.5202V41.2839ZM42.5202 41.1019H42.7766C42.8499 41.1019 42.9232 41.1019 42.9598 41.0655C43.0331 41.0655 43.0698 41.0291 43.1064 40.9927C43.1431 40.9563 43.1797 40.9199 43.1797 40.8835C43.2163 40.8471 43.2163 40.7743 43.2163 40.7379C43.2163 40.6287 43.1797 40.5559 43.1064 40.4831C43.0331 40.4103 42.9232 40.4103 42.7766 40.4103H42.4835V41.1019H42.5202Z" fill="white"/>
<path d="M8.14307 34.1688C8.14307 31.5453 10.1179 29.3591 13.0069 29.3591C13.8846 29.3591 14.9817 29.5778 15.6034 29.9421V32.0554C15.0914 31.6182 14.1772 31.3267 13.2629 31.3267C11.3247 31.3267 10.3373 32.5291 10.3373 34.0959C10.3373 35.6627 11.3978 36.9744 13.3361 36.9744C14.1406 36.9744 14.9817 36.7558 15.6034 36.3914V38.4683C15.0183 38.7962 13.8846 38.9784 13.0435 38.9784C10.1179 38.942 8.14307 36.7558 8.14307 34.1688Z" fill="white"/>
<path d="M16.873 29.5166H20.517C22.5413 29.5166 23.9768 30.8232 23.9768 32.5653C23.9768 33.6542 23.2775 34.6704 22.3205 35.2511L24.4921 38.6628H22.026L20.2225 35.723H18.9711V38.6628H16.9099V29.5166H16.873ZM20.4801 34.0171C21.3267 34.0171 21.8788 33.4001 21.8788 32.7105C21.8788 32.0209 21.3267 31.4039 20.4801 31.4039H18.9342V34.0171H20.4801Z" fill="white"/>
<path d="M24.9688 34.1505C24.9688 31.4805 27.1149 29.3591 29.7704 29.3591C32.4258 29.3591 34.572 31.5171 34.572 34.1505C34.572 36.8205 32.4258 38.9784 29.7704 38.9784C27.1149 38.9784 24.9688 36.8205 24.9688 34.1505ZM32.4622 34.1505C32.4622 32.5778 31.2981 31.3708 29.7704 31.3708C28.2789 31.3708 27.0785 32.5778 27.0785 34.1505C27.0785 35.7232 28.2426 36.9668 29.7704 36.9668C31.2618 36.9668 32.4622 35.7232 32.4622 34.1505Z" fill="white"/>
<path d="M35.6035 29.5166H37.6352L41.5877 35.2874V29.5166H43.6194V38.6628H41.5877L37.6352 32.8557V38.6628H35.6035V29.5166Z" fill="white"/>
<path d="M18.8134 28.1067H18.6302C18.5936 28.1067 18.5936 28.1067 18.5936 28.1067C18.5936 28.1067 18.5569 28.0703 18.5569 28.0339L18.3737 27.5971H17.531L17.3478 28.0339C17.3478 28.0339 17.3478 28.0703 17.3112 28.0703H17.2745H17.0913L17.8241 26.2139H18.0806L18.8134 28.1067ZM17.6043 27.4151H18.3005L18.0073 26.6507C17.9707 26.6143 17.9707 26.5415 17.934 26.4687C17.934 26.5051 17.8974 26.5415 17.8974 26.5779C17.8974 26.6143 17.8974 26.6507 17.8608 26.6507L17.6043 27.4151Z" fill="white"/>
<path d="M21.1947 27.1602C21.1947 27.3058 21.1581 27.415 21.1214 27.5242C21.0848 27.6334 21.0115 27.7426 20.9382 27.8154C20.8649 27.9246 20.755 27.9974 20.6451 28.0338C20.5352 28.0702 20.4253 28.1066 20.2787 28.1066H19.5825V26.2501H20.2787C20.4253 26.2501 20.5352 26.2865 20.6451 26.3229C20.755 26.3593 20.8649 26.4321 20.9382 26.5049C21.0115 26.5777 21.0848 26.6869 21.1214 26.7961C21.1581 26.9053 21.1947 27.0145 21.1947 27.1602ZM20.9382 27.1602C20.9382 27.051 20.9382 26.9417 20.9016 26.8689C20.8649 26.7961 20.8283 26.6869 20.755 26.6505C20.6817 26.5777 20.6451 26.5413 20.5352 26.5049C20.4619 26.4685 20.352 26.4685 20.2787 26.4685H19.839V27.9246H20.2787C20.3886 27.9246 20.4619 27.9246 20.5352 27.8882C20.6085 27.8518 20.6817 27.8154 20.755 27.7426C20.8283 27.6698 20.8649 27.597 20.9016 27.5242C20.9382 27.3786 20.9382 27.2694 20.9382 27.1602Z" fill="white"/>
<path d="M21.7812 26.2501H21.9645C22.0011 26.2501 22.0011 26.2501 22.0011 26.2501L22.0377 26.2865L22.5873 27.597C22.5873 27.6334 22.624 27.6698 22.624 27.7062C22.624 27.7426 22.6606 27.779 22.6606 27.8154C22.6606 27.779 22.6606 27.7426 22.6973 27.7062C22.6973 27.6698 22.7339 27.6334 22.7339 27.597L23.2469 26.2865C23.2469 26.2865 23.2469 26.2501 23.2835 26.2501L23.3202 26.2137H23.54L22.7706 28.0702H22.5507L21.7812 26.2501Z" fill="white"/>
<path d="M25.6284 28.1066H25.4452C25.4085 28.1066 25.4085 28.1066 25.4085 28.1066L25.3719 28.0702L25.1887 27.6334H24.3459L24.1627 28.0702C24.1627 28.0702 24.1627 28.1066 24.1261 28.1066H24.0895H23.9062L24.6391 26.2501H24.8956L25.6284 28.1066ZM24.4192 27.415H25.1154L24.8223 26.6505C24.7856 26.6141 24.7856 26.5413 24.749 26.4685C24.749 26.5049 24.7123 26.5413 24.7123 26.5777C24.7123 26.6141 24.7123 26.6505 24.6757 26.6505L24.4192 27.415Z" fill="white"/>
<path d="M26.5812 26.2501C26.5812 26.2501 26.6178 26.2501 26.6178 26.2865L27.6804 27.6698C27.6804 27.6334 27.6804 27.6334 27.6804 27.597C27.6804 27.5606 27.6804 27.5606 27.6804 27.5242V26.2501H27.9002V28.1066H27.7903C27.7537 28.1066 27.7537 28.1066 27.7537 28.1066L27.717 28.0702L26.6178 26.6505C26.6178 26.6869 26.6178 26.6869 26.6178 26.7233C26.6178 26.7597 26.6178 26.7597 26.6178 26.7961V28.1066H26.3979V26.2501H26.5445C26.5445 26.2501 26.5445 26.2501 26.5812 26.2501Z" fill="white"/>
<path d="M30.1717 27.7062H30.2083L30.3182 27.8154C30.2449 27.8882 30.135 27.961 30.0251 28.0338C29.9152 28.0702 29.7686 28.1066 29.6221 28.1066C29.4755 28.1066 29.3656 28.0702 29.2556 28.0338C29.1824 27.9974 29.0724 27.9246 28.9992 27.8518C28.9259 27.779 28.8526 27.6698 28.816 27.5606C28.7793 27.4514 28.7427 27.3058 28.7427 27.1602C28.7427 27.0146 28.7793 26.9054 28.816 26.7598C28.8526 26.6142 28.9259 26.5414 28.9992 26.4686C29.0724 26.3958 29.1824 26.3229 29.2923 26.2865C29.4022 26.2501 29.5488 26.2137 29.6587 26.2137C29.8053 26.2137 29.9152 26.2501 30.0251 26.2865C30.135 26.3229 30.2083 26.3958 30.2816 26.4686L30.2083 26.5778C30.2083 26.5778 30.2083 26.5778 30.1717 26.6142H30.135H30.0984L30.0617 26.5778C30.0617 26.5778 30.0251 26.5414 29.9885 26.5414C29.9518 26.5414 29.9518 26.505 29.9152 26.505C29.8785 26.505 29.8419 26.4686 29.8053 26.4686C29.7686 26.4686 29.732 26.4686 29.6587 26.4686C29.5488 26.4686 29.4755 26.4686 29.4022 26.505C29.3289 26.5414 29.2556 26.5778 29.1824 26.6506C29.1091 26.7234 29.0724 26.7962 29.0358 26.869C28.9992 26.9418 28.9992 27.051 28.9992 27.1602C28.9992 27.2694 28.9992 27.3786 29.0358 27.4514C29.0724 27.5242 29.1091 27.6334 29.1824 27.6698C29.2556 27.7426 29.2923 27.779 29.4022 27.8154C29.4755 27.8518 29.5488 27.8518 29.6587 27.8518C29.732 27.8518 29.7686 27.8518 29.8053 27.8518C29.8419 27.8518 29.8785 27.8518 29.9152 27.8154C29.9518 27.8154 29.9885 27.779 30.0251 27.779C30.0617 27.7426 30.0984 27.7426 30.135 27.7062C30.1717 27.7062 30.1717 27.7062 30.1717 27.7062Z" fill="white"/>
<path d="M32.3336 26.2501V26.4685H31.4542V27.0874H32.1871V27.2694H31.4542V27.8882H32.3336V28.1066H31.1978V26.2501H32.3336Z" fill="white"/>
<path d="M34.8251 27.1602C34.8251 27.3058 34.7884 27.415 34.7518 27.5242C34.7152 27.6334 34.6419 27.7426 34.5686 27.8154C34.4953 27.8882 34.3854 27.961 34.2755 27.9974C34.1656 28.0338 34.0556 28.0702 33.9091 28.0702H33.2129V26.2501H33.9091C34.0556 26.2501 34.1656 26.2865 34.2755 26.3229C34.3854 26.3593 34.4953 26.4321 34.5686 26.5049C34.6419 26.5777 34.7152 26.6869 34.7518 26.7961C34.7884 26.9053 34.8251 27.0145 34.8251 27.1602ZM34.5686 27.1602C34.5686 27.0509 34.5686 26.9417 34.532 26.8689C34.4953 26.7961 34.4587 26.6869 34.3854 26.6505C34.3121 26.5777 34.2388 26.5413 34.1655 26.5049C34.0923 26.4685 33.9823 26.4685 33.9091 26.4685H33.4694V27.9246H33.9091C34.019 27.9246 34.0923 27.9246 34.1655 27.8882C34.2388 27.8518 34.3121 27.8154 34.3854 27.7426C34.4587 27.6698 34.4953 27.597 34.532 27.5242C34.532 27.3786 34.5686 27.2694 34.5686 27.1602Z" fill="white"/>
<path d="M15.2962 26.3592C15.5527 26.614 15.6626 26.978 15.5527 27.3057C15.4062 27.8153 14.8565 28.1065 14.3436 27.9609C11.9253 27.2693 9.28715 28.1793 7.78487 30.2178C7.45511 30.6546 6.86885 30.7638 6.42916 30.4362C5.98947 30.1086 5.87955 29.5261 6.20932 29.0893C8.15128 26.3956 11.6322 25.1944 14.8932 26.1044C15.0397 26.1772 15.1863 26.25 15.2962 26.3592Z" fill="white"/>
<path d="M5.95264 32.8025C6.45854 32.8025 6.86866 32.3951 6.86866 31.8925C6.86866 31.3899 6.45854 30.9824 5.95264 30.9824C5.44674 30.9824 5.03662 31.3899 5.03662 31.8925C5.03662 32.3951 5.44674 32.8025 5.95264 32.8025Z" fill="white"/>
<path d="M5.65953 34.5496C6.02379 34.5496 6.31907 34.2562 6.31907 33.8944C6.31907 33.5325 6.02379 33.2391 5.65953 33.2391C5.29528 33.2391 5 33.5325 5 33.8944C5 34.2562 5.29528 34.5496 5.65953 34.5496Z" fill="white"/>
<path d="M5.87916 35.9694C6.14223 35.9694 6.35549 35.7575 6.35549 35.4962C6.35549 35.2348 6.14223 35.0229 5.87916 35.0229C5.61609 35.0229 5.40283 35.2348 5.40283 35.4962C5.40283 35.7575 5.61609 35.9694 5.87916 35.9694Z" fill="white"/>
<path d="M6.2824 36.9887C6.46453 36.9887 6.61217 36.842 6.61217 36.6611C6.61217 36.4802 6.46453 36.3335 6.2824 36.3335C6.10028 36.3335 5.95264 36.4802 5.95264 36.6611C5.95264 36.842 6.10028 36.9887 6.2824 36.9887Z" fill="white"/>
<defs>
<linearGradient id="paint0_linear_9301_366" x1="20.475" y1="15.4999" x2="57.7174" y2="33.2049" gradientUnits="userSpaceOnUse">
<stop stop-color="#737EF7"/>
<stop offset="1" stop-color="#00A1E4"/>
</linearGradient>
</defs>
</svg>
