<svg width="49" height="68" viewBox="0 0 49 68" fill="none" xmlns="http://www.w3.org/2000/svg">
<rect x="0.5" y="0.470581" width="48" height="67.0588" rx="5" fill="url(#paint0_linear_9301_205)"/>
<g clip-path="url(#clip0_9301_205)">
<path d="M13.6836 8.12924C13.0043 8.38853 12.534 8.85527 12.1682 9.52944C12.0114 9.89246 11.9069 10.2555 11.9069 10.6185C11.9069 11.6557 12.534 12.5891 13.5268 13.004L28.367 19.5902L21.6262 22.5462C21.5739 22.5462 21.2082 22.8055 21.0514 22.9092C20.6856 23.1685 20.3721 23.5315 20.1631 23.9982C20.1108 24.1538 20.0586 24.3094 20.0063 24.465C19.9541 24.6724 19.9018 24.8798 19.9018 25.0873C19.9541 25.6577 20.0586 26.0726 20.3198 26.4875L20.3721 26.5393C20.4766 26.6949 20.6334 26.8505 20.7901 27.0061C20.8946 27.0579 21.1037 27.3172 21.5217 27.4728L28.3147 30.4807C28.3147 30.4807 23.5073 32.555 21.9397 33.2811C21.3127 33.5922 20.7379 33.8515 20.4244 34.422C20.1631 34.8887 20.0586 35.4073 20.0586 35.9259C20.0586 36.6001 20.2676 37.1187 20.6334 37.5335C20.8424 37.7928 21.0514 37.9484 21.3127 38.104C21.8352 38.4152 22.4623 38.6226 23.1938 38.4152C24.8137 37.8966 26.4858 38.104 28.2625 39.1412C29.6733 39.9191 30.7707 41.1637 31.2932 42.5639C31.7635 43.7048 31.9203 44.9494 31.7635 46.1941C31.7635 46.5052 31.659 46.8164 31.6067 47.1275C31.2932 48.787 30.5094 50.0317 29.5688 51.017C28.994 51.6912 28.2625 52.2616 27.4787 52.6765C27.1129 52.8839 26.6948 53.0395 26.2768 53.1432C24.6569 53.61 23.0371 53.5063 21.3649 52.7802C19.745 52.106 18.4909 50.9133 17.6549 49.4612C16.8711 48.061 16.6098 46.4015 16.9233 44.742L24.5002 48.0091C25.6498 48.4759 26.0678 48.2166 26.3291 48.1129C26.9039 47.9054 27.2174 47.3868 27.4787 46.7645C27.5832 46.4534 27.6354 46.1422 27.6354 45.7792C27.5832 44.9494 27.2174 44.379 26.3291 43.9123L16.035 39.5042C14.6241 38.8819 13.2133 39.4523 12.6385 40.8007C11.3321 43.9641 11.3844 47.4387 12.6385 50.4984C13.9971 53.7137 16.4008 56.2029 19.536 57.5513C21.783 58.5366 24.1866 58.7959 26.4858 58.4329C26.4858 58.4329 26.4858 58.4329 26.5381 58.4329C26.9561 58.381 27.3741 58.2773 27.7922 58.1736C27.8444 58.1736 27.8444 58.1736 27.8967 58.1736C27.8967 58.1736 27.8967 58.1736 27.9489 58.1736C28.2625 58.0699 28.6282 57.9143 28.994 57.8106L29.0463 57.8106C29.0985 57.7587 29.203 57.7587 29.2553 57.7587C32.3383 56.5141 35.0032 53.7137 36.3618 50.5503C36.4141 50.4465 36.3096 50.654 36.3618 50.5503C37.3547 47.9573 37.5114 45.2087 36.7799 42.5639C35.8916 39.4005 33.8537 36.7038 30.9797 34.9924L35.4213 32.9699C35.7348 32.8143 35.9961 32.6588 36.2051 32.4513C36.7276 31.9327 36.9889 31.3623 37.0412 30.6881L37.0412 30.2732C36.9889 29.9621 36.9366 29.6509 36.7799 29.3397C36.6754 29.236 36.4664 28.7693 36.1528 28.51C35.8916 28.2507 35.6303 28.147 35.4213 27.9914C35.0032 27.7321 28.9418 25.0354 28.9418 25.0354L32.5473 23.3241C32.5473 23.3241 34.742 22.3906 35.4213 22.0276C35.7871 21.8201 36.1528 21.509 36.2051 21.4571C36.7276 20.9904 36.9889 20.3162 36.9889 19.642L36.9889 19.3309C36.9366 18.8641 36.7799 18.3974 36.4664 17.9307C36.2051 17.6195 35.8393 17.3084 35.4213 17.1009L15.7215 8.1811C15.3557 8.02552 15.0422 7.9218 14.6764 7.9218C14.3106 7.9218 13.9971 7.97366 13.6836 8.12924Z" fill="white"/>
</g>
<defs>
<linearGradient id="paint0_linear_9301_205" x1="20.475" y1="15.4999" x2="57.7174" y2="33.2049" gradientUnits="userSpaceOnUse">
<stop stop-color="#F35368"/>
<stop offset="1" stop-color="#FF6C63"/>
</linearGradient>
<clipPath id="clip0_9301_205">
<rect x="11.75" y="58.5883" width="50.6667" height="25.5" transform="rotate(-90 11.75 58.5883)" fill="white"/>
</clipPath>
</defs>
</svg>
