<svg width="200" height="200" viewBox="0 0 200 200" xmlns="http://www.w3.org/2000/svg">
  <rect width="200" height="200" rx="20" fill="#2e8555"/>
  <g transform="translate(30,30)">
    <!-- Image frame -->
    <rect x="10" y="10" width="120" height="90" rx="8" fill="white" stroke="none"/>
    <rect x="15" y="15" width="110" height="80" rx="5" fill="#e9ecef" stroke="#dee2e6"/>
    
    <!-- Mountain landscape -->
    <path d="M15 75 L45 45 L65 60 L85 35 L115 65 L125 55 L125 95 L15 95 Z" fill="#6c757d"/>
    <path d="M15 85 L35 65 L55 75 L75 50 L95 70 L125 60 L125 95 L15 95 Z" fill="#495057"/>
    
    <!-- Sun -->
    <circle cx="105" cy="30" r="8" fill="#ffd43b"/>
    
    <!-- Watermark overlay -->
    <g opacity="0.4">
      <rect x="25" y="25" width="80" height="50" fill="white" opacity="0.2" rx="3"/>
      <text x="65" y="45" text-anchor="middle" font-family="Arial" font-size="12" font-weight="bold" fill="white" opacity="0.8">WATERMARK</text>
      <text x="65" y="58" text-anchor="middle" font-family="Arial" font-size="8" fill="white" opacity="0.6">© BracketSpace</text>
    </g>
    
    <!-- Shield protection icon -->
    <g transform="translate(105, 75)">
      <path d="M12 2 L20 4 L20 12 C20 16 16 20 12 22 C8 20 4 16 4 12 L4 4 Z" fill="white"/>
      <path d="M12 4 L18 5.5 L18 12 C18 15 15 18 12 19.5 C9 18 6 15 6 12 L6 5.5 Z" fill="#28a745"/>
      <path d="M10 10 L11.5 11.5 L15 8" stroke="white" stroke-width="2" fill="none" stroke-linecap="round"/>
    </g>
  </g>
</svg>