<svg width="49" height="68" viewBox="0 0 49 68" fill="none" xmlns="http://www.w3.org/2000/svg">
<rect x="0.5" y="0.470581" width="48" height="67.0588" rx="5" fill="url(#paint0_linear_9301_329)"/>
<path d="M28.686 33.2685C28.5279 32.6922 28.7011 31.884 29.6494 31.3301C29.7097 31.3002 29.7624 31.2628 29.815 31.2329C28.0688 29.2945 27.4064 26.9371 27.843 24.2353C27.9484 23.5693 28.1441 22.9331 28.4075 22.3194C28.2193 22.297 28.0236 22.2745 27.8054 22.2745C26.2624 22.2745 25.4871 22.9331 25.4871 24.2503V39.6823L16.7107 24.4823C15.9355 23.1277 14.8667 22.282 12.7366 22.282C10.6065 22.282 9.5 23.1277 9.5 24.9538V44.4421C9.5 45.7593 10.2753 46.4178 11.8183 46.4178C13.3613 46.4178 14.0989 45.7593 14.0989 44.4421V28.6808L23.3269 44.1502C24.2075 45.6844 25.1634 46.4178 27.0753 46.4178C29.1 46.4178 30.1236 45.5422 30.1236 43.7461V34.4959C29.4236 34.3612 28.8591 33.8972 28.686 33.2685Z" fill="white"/>
<path d="M36.4612 18.3529C35.5053 18.3529 34.5117 18.5325 33.5107 18.9142C31.6967 19.6027 30.2816 21.0247 29.5365 22.7685C29.3107 23.2998 29.1375 23.8536 29.0472 24.4299C28.6558 26.8622 29.3182 28.5461 30.1386 29.7061C30.4246 30.1102 30.7257 30.447 31.0117 30.7389C31.9601 31.6968 31.4483 31.6893 30.2666 32.3704C30.2139 32.4003 30.1838 32.4303 30.1386 32.4602C29.7021 32.782 29.8225 33.0963 30.1386 33.246C30.259 33.2984 30.4021 33.3358 30.5451 33.3358H36.2053C40.3074 33.3358 43.8526 30.1926 43.9956 26.1138C44.1386 21.8554 40.7139 18.3529 36.4612 18.3529ZM36.2504 30.1102C35.6633 30.1102 35.1967 29.6387 35.1967 29.0625C35.1967 28.4862 35.6709 28.0147 36.2504 28.0147C36.83 28.0147 37.3042 28.4862 37.3042 29.0625C37.3042 29.6387 36.8375 30.1102 36.2504 30.1102ZM37.3117 25.8369C37.3117 26.4206 36.8375 26.8846 36.258 26.8846C35.6784 26.8846 35.2042 26.4131 35.2042 25.8369V22.6337C35.2042 22.05 35.6784 21.586 36.258 21.586C36.8375 21.586 37.3117 22.0575 37.3117 22.6337V25.8369Z" fill="white"/>
<defs>
<linearGradient id="paint0_linear_9301_329" x1="20.475" y1="15.4999" x2="57.7174" y2="33.2049" gradientUnits="userSpaceOnUse">
<stop stop-color="#23C865"/>
<stop offset="1" stop-color="#02C697"/>
</linearGradient>
</defs>
</svg>
