<svg width="200" height="200" viewBox="0 0 200 200" xmlns="http://www.w3.org/2000/svg">
  <rect width="200" height="200" rx="20" fill="#2e8555"/>
  <g transform="translate(50,50)">
    <!-- Bell icon -->
    <path d="M75 20c-13.807 0-25 11.193-25 25v20c0 8.284-6.716 15-15 15-2.761 0-5 2.239-5 5s2.239 5 5 5h80c2.761 0 5-2.239 5-5s-2.239-5-5-5c-8.284 0-15-6.716-15-15V45c0-13.807-11.193-25-25-25z" fill="white"/>
    <!-- Bell clapper -->
    <circle cx="75" cy="95" r="8" fill="white"/>
    <!-- Notification dots -->
    <circle cx="95" cy="25" r="6" fill="#ff4444"/>
    <circle cx="105" cy="35" r="4" fill="#ff6666"/>
    <circle cx="102" cy="45" r="3" fill="#ff8888"/>
  </g>
</svg>