<svg width="200" height="200" viewBox="0 0 200 200" xmlns="http://www.w3.org/2000/svg">
  <rect width="200" height="200" rx="20" fill="#2e8555"/>
  <g transform="translate(30,50)">
    <!-- Email envelope -->
    <rect x="10" y="20" width="120" height="80" rx="5" fill="white" stroke="none"/>
    <rect x="15" y="25" width="110" height="70" rx="3" fill="#f8f9fa" stroke="#dee2e6"/>
    
    <!-- Email content lines -->
    <rect x="25" y="35" width="90" height="3" fill="#2e8555"/>
    <rect x="25" y="45" width="70" height="2" fill="#6c757d"/>
    <rect x="25" y="52" width="85" height="2" fill="#6c757d"/>
    <rect x="25" y="59" width="60" height="2" fill="#6c757d"/>
    
    <!-- Decorative elements -->
    <circle cx="25" cy="75" r="3" fill="#ff6b6b"/>
    <circle cx="35" cy="75" r="3" fill="#4ecdc4"/>
    <circle cx="45" cy="75" r="3" fill="#45b7d1"/>
    
    <!-- Email flap -->
    <path d="M15 25 L70 55 L125 25" stroke="#2e8555" stroke-width="2" fill="none"/>
    
    <!-- Sparkle effects -->
    <g fill="white" opacity="0.8">
      <path d="M100 15 L102 20 L107 18 L102 23 L100 28 L98 23 L93 18 L98 20 Z"/>
      <path d="M130 40 L131 43 L134 42 L131 45 L130 48 L129 45 L126 42 L129 43 Z"/>
      <path d="M20 85 L21 87 L23 86 L21 89 L20 91 L19 89 L17 86 L19 87 Z"/>
    </g>
  </g>
</svg>