<svg width="76" height="106" viewBox="0 0 76 106" fill="none" xmlns="http://www.w3.org/2000/svg">
<rect x="0.105469" y="0.0585938" width="75.7895" height="105.882" rx="5" fill="url(#paint0_linear_2401_1847)"/>
<path d="M36.2863 29.2466C35.5537 28.8011 34.7399 28.5039 33.8915 28.3719C33.0432 28.2399 32.177 28.2758 31.3426 28.4775C30.5083 28.6792 29.7222 29.0428 29.0294 29.5473C28.3366 30.0518 27.7508 30.6874 27.3055 31.4176L10.5289 58.8711C10.0832 59.6009 9.78641 60.4109 9.65551 61.2548C9.52462 62.0987 9.56217 62.96 9.76604 63.7894C9.9699 64.6189 10.3361 65.4003 10.8437 66.089C11.3512 66.7777 11.9902 67.3601 12.7242 67.8031V67.8031C13.457 68.2461 14.2705 68.541 15.118 68.671C15.9655 68.8011 16.8305 68.7637 17.6635 68.5609C18.4965 68.3581 19.2811 67.9939 19.9724 67.4892C20.6638 66.9846 21.2483 66.3493 21.6925 65.6198L38.4691 38.1662C38.9167 37.4386 39.2153 36.6301 39.3479 35.7873C39.4804 34.9445 39.4442 34.0841 39.2414 33.2552C39.0386 32.4264 38.6731 31.6456 38.1659 30.9577C37.6588 30.2697 37.02 29.6883 36.2863 29.2466Z" fill="white"/>
<path d="M30.3282 63.1424C30.0974 63.0002 29.8403 62.905 29.5721 62.8624C29.3039 62.8198 29.0299 62.8307 28.7659 62.8942C28.5019 62.9578 28.2533 63.0728 28.0345 63.2326C27.8156 63.3925 27.631 63.594 27.4912 63.8254L25.2665 67.464C25.1251 67.6938 25.0307 67.9492 24.9887 68.2153C24.9468 68.4815 24.958 68.7533 25.0218 69.0152C25.0857 69.277 25.2009 69.5237 25.3608 69.7413C25.5208 69.9588 25.7223 70.1429 25.9539 70.283C26.2791 70.4757 26.6501 70.5786 27.0287 70.581C27.3827 70.5826 27.7311 70.4931 28.0399 70.3212C28.3487 70.1493 28.6075 69.9008 28.791 69.6L31.0156 65.9614C31.1587 65.732 31.2544 65.4766 31.2973 65.2101C31.3402 64.9436 31.3293 64.6713 31.2654 64.409C31.2014 64.1467 31.0856 63.8996 30.9248 63.6822C30.7639 63.4647 30.5611 63.2813 30.3282 63.1424V63.1424Z" fill="white"/>
<path d="M67.2519 65.5684C67.0202 65.4279 66.7628 65.3342 66.4944 65.2925C66.2261 65.2508 65.9521 65.2619 65.6881 65.3254C65.4241 65.3888 65.1753 65.5033 64.956 65.6622C64.7367 65.8211 64.5511 66.0213 64.4099 66.2514C64.2722 66.4786 64.0907 66.6764 63.8757 66.8338C63.6607 66.9912 63.4165 67.1049 63.157 67.1683C62.8976 67.2318 62.6281 67.2438 62.3639 67.2036C62.0998 67.1635 61.8463 67.0719 61.6179 66.9343C61.3884 66.7966 61.1886 66.6154 61.0297 66.4011C60.8709 66.1867 60.7563 65.9435 60.6923 65.6852C60.6284 65.4269 60.6164 65.1586 60.657 64.8957C60.6977 64.6328 60.7902 64.3804 60.9293 64.153L66.2503 55.4613C67.0987 54.0766 67.3577 52.4143 66.9703 50.8402C66.5828 49.2661 65.5808 47.9091 64.1845 47.0677C62.7882 46.2263 61.1121 45.9694 59.5249 46.3536C57.9377 46.7378 56.5694 47.7316 55.721 49.1164V49.1164L44.9914 66.6363C44.7109 67.0929 44.2616 67.4226 43.7394 67.5551C43.3481 67.647 42.9382 67.6221 42.5611 67.4837C42.184 67.3453 41.8565 67.0995 41.6198 66.7772C41.3831 66.4549 41.2476 66.0704 41.2305 65.672C41.2133 65.2736 41.3152 64.8791 41.5233 64.5379V64.5379L52.303 46.9435C52.7354 46.2651 53.0289 45.5091 53.1667 44.7183C53.3044 43.9275 53.2838 43.1175 53.1059 42.3346C52.928 41.5517 52.5964 40.8112 52.13 40.1555C51.6635 39.4997 51.0714 38.9414 50.3875 38.5126C49.7035 38.0838 48.9411 37.7927 48.1437 37.6561C47.3463 37.5195 46.5296 37.54 45.7402 37.7164C44.9508 37.8928 44.2042 38.2217 43.543 38.6843C42.8817 39.1468 42.3188 39.7341 41.8864 40.4124L41.7362 40.611L31.1067 57.9943C30.8251 58.4608 30.7407 59.0188 30.872 59.5468C31.0033 60.0747 31.3397 60.5298 31.8078 60.8129C32.1304 61.0128 32.5042 61.1163 32.8845 61.1109C33.2389 61.1113 33.5874 61.0212 33.8966 60.8494C34.2057 60.6776 34.4652 60.4299 34.6499 60.13L45.2668 42.7467C45.4025 42.518 45.5833 42.3187 45.7984 42.1608C46.0135 42.0029 46.2586 41.8896 46.5188 41.8278C46.7784 41.7638 47.0483 41.7518 47.3127 41.7923C47.5771 41.8328 47.8307 41.925 48.0588 42.0637C48.2878 42.2002 48.4874 42.3803 48.6461 42.5936C48.8048 42.8068 48.9194 43.049 48.9834 43.3063C49.0474 43.5636 49.0594 43.8309 49.0189 44.0928C48.9784 44.3548 48.8861 44.6062 48.7474 44.8327V44.8327L37.9551 62.4519C37.1173 63.8356 36.867 65.4922 37.2589 67.0587C37.6508 68.6251 38.6531 69.9736 40.046 70.8083C41.0082 71.3891 42.1121 71.6981 43.2386 71.7022C43.7361 71.6996 44.2316 71.6414 44.7159 71.5285C46.2683 71.16 47.6153 70.207 48.4719 68.8713V68.8713L59.2016 51.3638C59.3373 51.135 59.5181 50.9358 59.7332 50.778C59.9483 50.6201 60.1933 50.5068 60.4536 50.445C60.7132 50.381 60.9831 50.3689 61.2474 50.4094C61.5118 50.4499 61.7655 50.5422 61.9935 50.6809C62.2226 50.8174 62.4222 50.9975 62.5808 51.2107C62.7395 51.4239 62.8541 51.6661 62.9181 51.9234C62.9821 52.1807 62.9942 52.448 62.9537 52.71C62.9132 52.9719 62.8209 53.2234 62.6821 53.4498V53.4498L57.4488 62.0297C56.8808 62.9568 56.5714 64.0168 56.5523 65.1014C56.5332 66.186 56.805 67.2562 57.34 68.2023C57.875 69.1485 58.6539 69.9368 59.5969 70.4863C60.54 71.0358 61.6134 71.3269 62.7072 71.3298C63.2046 71.3271 63.7002 71.2688 64.1845 71.1559C65.7545 70.7577 67.1036 69.7632 67.9405 68.387C68.0838 68.1577 68.1798 67.9023 68.2227 67.6358C68.2657 67.3694 68.2548 67.0971 68.1907 66.8349C68.1266 66.5726 68.0107 66.3257 67.8495 66.1082C67.6883 65.8908 67.4852 65.7073 67.2519 65.5684V65.5684Z" fill="white"/>
<defs>
<linearGradient id="paint0_linear_2401_1847" x1="31.6449" y1="23.7892" x2="90.4487" y2="51.7444" gradientUnits="userSpaceOnUse">
<stop stop-color="#FFA031"/>
<stop offset="1" stop-color="#FF8A00"/>
</linearGradient>
</defs>
</svg>
