<?xml version="1.0" encoding="UTF-8"?>
<svg xmlns="http://www.w3.org/2000/svg" width="205" height="34" viewBox="0 0 205 34" fill="none">
  <g clip-path="url(#clip0_6549_16113)">
    <path d="M17.5859 34C15.8469 34 14.2055 33.3452 12.981 32.1552L1.9084 21.4515C0.677385 20.2678 0 18.6811 0 17C0 15.3189 0.677385 13.7385 1.9084 12.5485L12.981 1.84481C14.212 0.654815 15.8469 0 17.5859 0C19.325 0 20.9598 0.654815 22.1909 1.84481L33.257 12.5422C34.4945 13.7385 35.1719 15.3189 35.1719 17C35.1719 18.6811 34.4945 20.2678 33.2635 21.4578L22.1974 32.1615C20.9664 33.3452 19.325 34 17.5859 34ZM17.5859 3.3937C16.8369 3.3937 16.1335 3.67074 15.6059 4.18704L4.33135 15.0922C3.79726 15.6022 3.51068 16.2822 3.51068 17C3.51068 17.7241 3.79726 18.3978 4.33135 18.9141L15.6124 29.8193C16.14 30.3293 16.8434 30.6063 17.5859 30.6126C18.335 30.6126 19.0384 30.3293 19.566 29.8193L30.847 18.9141C31.3746 18.4041 31.6677 17.7241 31.6677 17C31.6677 16.2822 31.3746 15.6022 30.847 15.0922L19.566 4.18704C19.0384 3.67704 18.335 3.3937 17.5859 3.3937Z" fill="white"></path>
    <path d="M17.6586 26.1485L11.1387 19.8459C9.47133 18.2404 9.47784 15.6211 11.1387 14.0156L14.213 11.0437L16.4601 13.2222L13.3858 16.1878C12.9625 16.597 12.9625 17.2581 13.3858 17.6611L19.9057 23.9637L17.6586 26.1485Z" fill="white"></path>
    <path d="M20.9596 22.8808L18.7059 20.7022L21.7802 17.7304C22.1971 17.3211 22.1971 16.66 21.7802 16.2571L15.293 9.99224L17.5466 7.81372L24.0338 14.0848C25.6947 15.6904 25.6947 18.3033 24.0338 19.9152L20.9596 22.8808Z" fill="white"></path>
    <path d="M43.7571 25.1032C43.0601 25.1032 42.5195 24.5995 42.5195 23.9195V10.8358C42.5195 10.1621 43.0536 9.6521 43.7571 9.6521H48.1536C49.339 9.6521 50.4397 10.1117 51.2474 10.8799C52.0485 11.6669 52.524 12.7373 52.524 13.8832C52.524 15.0417 52.0355 16.1058 51.2018 16.8865C52.4133 17.7428 53.1362 19.0462 53.1362 20.5573C53.1362 21.8228 52.6217 22.9562 51.7359 23.781C50.8501 24.6121 49.6256 25.0969 48.3164 25.0969H43.7571V25.1032ZM48.0754 15.9925C48.6095 15.9799 49.098 15.728 49.4627 15.3314C49.8144 14.9599 50.0229 14.4499 50.0229 13.9651C50.0229 13.4677 49.7884 12.9765 49.4236 12.624C49.0589 12.2714 48.5509 12.0573 48.0103 12.0573H45.0076V15.9925H48.0754ZM48.2252 22.698C48.8765 22.698 49.4888 22.4336 49.9317 21.9991C50.3811 21.5647 50.6416 20.9854 50.6416 20.3936C50.6416 19.7765 50.3811 19.1973 49.9317 18.8006C49.4692 18.404 48.857 18.1584 48.2122 18.1584H45.0076V22.698H48.2252Z" fill="white"></path>
    <path d="M57.5067 24.7506C57.2592 24.5113 57.1289 24.2343 57.1289 23.9069V14.9284C57.1289 14.601 57.2527 14.3113 57.5067 14.0721C57.7412 13.8391 58.0408 13.7195 58.3925 13.7195C58.7572 13.7195 59.0438 13.8391 59.2653 14.0721C59.4998 14.3113 59.617 14.601 59.617 14.9284C60.7503 14.135 61.9878 13.7321 63.3361 13.7321H63.3882C64.1893 13.7321 64.6713 14.2169 64.6713 14.9284C64.6713 15.6021 64.0981 16.1247 63.3882 16.1247H63.3361C62.3396 16.1247 61.4016 16.5087 60.7177 17.1887C60.0208 17.8624 59.617 18.7691 59.617 19.7702V23.9069C59.617 24.5806 59.0829 25.1032 58.3795 25.1032C58.0408 25.1032 57.7412 24.9773 57.5067 24.7506Z" fill="white"></path>
    <path d="M68.7163 23.5544C67.6025 22.4777 66.9707 21.0422 66.9707 19.487C66.9707 17.9318 67.609 16.4963 68.7163 15.4196C69.817 14.3555 71.3151 13.7322 72.9239 13.7322C74.5327 13.7322 76.0047 14.3366 77.1054 15.3944C78.2062 16.4585 78.851 17.894 78.864 19.4366V23.8629C78.864 24.1903 78.7403 24.48 78.4993 24.7318C78.2843 24.9585 77.9391 25.0907 77.5874 25.0907C76.9361 25.0907 76.4411 24.6185 76.3759 23.9951C75.3143 24.8263 74.1679 25.2355 72.9174 25.2355C71.3151 25.2481 69.817 24.6185 68.7163 23.5544ZM75.3794 21.8418C76.0177 21.2248 76.3759 20.3937 76.3759 19.487C76.3759 18.5677 76.0112 17.7366 75.3794 17.1196C74.7411 16.5025 73.8683 16.1563 72.9174 16.1563C71.9794 16.1563 71.1197 16.5088 70.4814 17.1196C69.83 17.7492 69.4588 18.5803 69.4588 19.487C69.4588 20.3937 69.8431 21.2248 70.4814 21.8418C71.1197 22.4588 71.9794 22.8303 72.9174 22.8303C73.8748 22.8303 74.7476 22.4588 75.3794 21.8418Z" fill="white"></path>
    <path d="M84.4123 23.5796C83.2985 22.5533 82.6406 21.0926 82.6406 19.5374V19.5248C82.6406 19.5122 82.6406 19.5122 82.6537 19.5122V19.4996C82.6406 19.4996 82.6406 19.4996 82.6406 19.487C82.6406 17.9067 83.305 16.4711 84.4123 15.3944C85.513 14.3304 87.0176 13.707 88.6589 13.707C90.2417 13.707 91.7202 14.2485 92.7167 15.2496C93.0033 15.5267 93.1661 15.8541 93.1792 16.2004C93.1792 16.553 93.0424 16.8489 92.7818 17.0818C92.5083 17.3085 92.2347 17.4281 91.9481 17.4281C91.5639 17.4281 91.2121 17.2141 90.8148 16.9118C90.1179 16.3704 89.3819 16.1374 88.5156 16.1374C87.6038 16.1374 86.744 16.5467 86.1318 17.1889C85.5325 17.8185 85.1938 18.637 85.1938 19.4555L85.1808 19.4807L85.1938 19.4933C85.1938 20.3118 85.5325 21.1241 86.1187 21.7348C86.718 22.377 87.5256 22.7737 88.4375 22.7863C89.3363 22.8241 90.0984 22.6037 90.8083 22.0118C91.2056 21.7096 91.5574 21.5081 91.9221 21.5081C92.2217 21.5081 92.5083 21.6278 92.7818 21.8607C93.0424 22.0874 93.1792 22.377 93.1792 22.7296C93.1661 23.0822 93.0033 23.4033 92.7167 23.6804C91.7202 24.6815 90.2482 25.223 88.6589 25.223C87.0176 25.2356 85.5065 24.6311 84.4123 23.5796Z" fill="white"></path>
    <path d="M96.957 23.9195V10.8358C96.957 10.4958 97.0808 10.2188 97.3283 9.9921C97.5758 9.76543 97.8754 9.6521 98.2141 9.6521C98.911 9.6521 99.4386 10.1558 99.4386 10.8358V18.4606L103.972 14.1791C104.206 13.9588 104.486 13.8517 104.786 13.8517C105.125 13.8517 105.424 13.9714 105.672 14.2232V14.2484C105.906 14.4751 106.024 14.7521 106.024 15.0795C106.024 15.3943 105.9 15.6714 105.659 15.898L102.826 18.5047L106.011 23.2206C106.147 23.4284 106.212 23.6425 106.212 23.8754C106.212 24.2973 106.011 24.6625 105.652 24.8891C105.45 25.0214 105.229 25.0969 104.981 25.0969C104.571 25.0969 104.193 24.9017 103.959 24.5554L100.989 20.1858L99.4386 21.6088V23.9132C99.4386 24.2406 99.3279 24.5177 99.0869 24.7443C98.8524 24.971 98.5658 25.0906 98.2271 25.0906C97.5237 25.1032 96.957 24.5932 96.957 23.9195Z" fill="white"></path>
    <path d="M111.02 23.5544C109.907 22.4903 109.262 21.0422 109.262 19.487C109.262 17.9318 109.913 16.4711 111.02 15.407C112.134 14.3429 113.632 13.7322 115.241 13.7322C116.837 13.7322 118.322 14.3492 119.436 15.3944C120.549 16.4459 121.207 17.8814 121.22 19.424C121.22 20.0977 120.706 20.57 119.996 20.57H112.017C112.219 21.2437 112.642 21.8355 113.202 22.2574C113.762 22.6918 114.485 22.9185 115.234 22.9185C116.198 22.9185 116.934 22.6288 117.468 22.0622C117.729 21.8544 118.003 21.76 118.289 21.76C118.426 21.76 118.563 21.7851 118.7 21.8355C118.934 21.9174 119.136 22.0874 119.299 22.3392C119.436 22.547 119.514 22.7737 119.514 23.0129C119.514 23.3655 119.351 23.6614 119.038 23.9196C118.589 24.3163 118.1 24.6311 117.566 24.8388C116.902 25.0907 116.12 25.2229 115.234 25.2229C113.632 25.2355 112.134 24.6185 111.02 23.5544ZM118.66 18.574C118.472 17.8374 118.061 17.1951 117.475 16.7544C116.863 16.2822 116.088 16.0303 115.28 16.0303C114.446 16.0303 113.717 16.2696 113.111 16.7544C112.525 17.2266 112.115 17.85 111.952 18.574H118.66Z" fill="white"></path>
    <path d="M126.026 23.9195V16.1562H125.128C124.776 16.1562 124.489 16.0365 124.255 15.7973C124.007 15.5454 123.877 15.2558 123.877 14.941C123.877 14.2673 124.424 13.7573 125.128 13.7573H126.026V10.8358C126.026 10.1621 126.573 9.6521 127.277 9.6521C127.974 9.6521 128.514 10.1558 128.514 10.8358V13.7573H129.589C130.299 13.7573 130.84 14.2673 130.84 14.941C130.84 15.6273 130.306 16.1625 129.589 16.1625H128.514V23.9195C128.514 24.5932 127.98 25.1032 127.277 25.1032C126.58 25.1032 126.026 24.5932 126.026 23.9195Z" fill="white"></path>
    <path d="M135.939 24.3791C134.988 23.8502 134.252 23.101 133.868 22.2762C133.757 22.0621 133.705 21.8417 133.705 21.634C133.705 21.5143 133.731 21.3821 133.77 21.2499C133.855 20.998 134.057 20.7902 134.356 20.6202C134.558 20.5132 134.741 20.4628 134.904 20.4628C135.268 20.4628 135.653 20.7021 136.05 21.1869C136.747 22.2636 137.913 22.8491 139.398 22.8491C140.147 22.8491 140.896 22.654 141.443 22.2699C142.029 21.8858 142.394 21.3191 142.394 20.6265C142.394 19.9654 142.068 19.4554 141.43 19.1028C140.993 18.8636 140.505 18.7188 139.743 18.5362L139.417 18.4543C137.756 18.1521 136.493 17.661 135.62 16.9936C134.584 16.2065 134.07 15.2054 134.07 13.9902C134.07 12.6995 134.682 11.5788 135.679 10.7665C136.662 9.97951 137.965 9.53247 139.313 9.53247C140.323 9.53247 141.247 9.72766 142.094 10.0991C142.98 10.5084 143.644 11.0751 144.081 11.7865C144.165 11.9314 144.218 12.0888 144.218 12.2462C144.218 12.3091 144.205 12.3784 144.192 12.4728C144.126 12.6932 144.016 12.8821 143.853 13.0395C143.664 13.2221 143.351 13.3291 143.039 13.3291C142.739 13.3291 142.492 13.2536 142.303 13.1088C141.788 12.6743 141.352 12.3721 140.993 12.2147C140.531 12.0195 139.984 11.9251 139.346 11.9251C138.597 11.9251 137.9 12.1202 137.398 12.4665C136.864 12.8191 136.564 13.3354 136.564 13.9525C136.564 14.6388 136.949 15.0858 137.652 15.4258C138.238 15.7028 138.935 15.8854 140.186 16.1373C141.521 16.4773 142.609 16.8991 143.41 17.5288C144.374 18.278 144.856 19.2665 144.856 20.488C144.856 21.8291 144.257 23.0065 143.247 23.8754C142.211 24.7317 140.798 25.2417 139.287 25.2417C138.089 25.2606 136.929 24.9458 135.939 24.3791Z" fill="white"></path>
    <path d="M148.791 27.9933V14.9159C148.791 14.2422 149.325 13.7322 150.029 13.7322C150.341 13.7322 150.641 13.8518 150.875 14.047C151.097 14.2422 151.24 14.494 151.273 14.8214C152.282 14.1351 153.481 13.7385 154.744 13.7385C156.353 13.7385 157.851 14.3681 158.952 15.4259C160.053 16.5025 160.684 17.9381 160.684 19.4933C160.684 21.0485 160.046 22.484 158.952 23.5607C157.851 24.6248 156.353 25.2481 154.744 25.2481C153.461 25.2481 152.276 24.8766 151.273 24.1651V27.9996C151.273 28.6733 150.725 29.1833 150.022 29.1833C149.325 29.177 148.791 28.6733 148.791 27.9933ZM157.206 21.8418C157.845 21.2248 158.203 20.3937 158.203 19.487C158.203 18.5677 157.838 17.7366 157.206 17.1196C156.568 16.5025 155.695 16.1563 154.744 16.1563C153.806 16.1563 152.947 16.5088 152.308 17.1196C151.657 17.7492 151.286 18.5803 151.286 19.487C151.286 20.3937 151.67 21.2248 152.308 21.8418C152.947 22.4588 153.806 22.8303 154.744 22.8303C155.695 22.8303 156.568 22.4588 157.206 21.8418Z" fill="white"></path>
    <path d="M165.511 23.5544C164.397 22.4777 163.766 21.0422 163.766 19.487C163.766 17.9318 164.404 16.4963 165.511 15.4196C166.612 14.3555 168.11 13.7322 169.719 13.7322C171.328 13.7322 172.8 14.3366 173.9 15.3944C175.001 16.4585 175.646 17.894 175.659 19.4366V23.8629C175.659 24.1903 175.535 24.48 175.294 24.7318C175.079 24.9585 174.734 25.0907 174.382 25.0907C173.731 25.0907 173.236 24.6185 173.171 23.9951C172.109 24.8263 170.963 25.2355 169.712 25.2355C168.103 25.2481 166.605 24.6185 165.511 23.5544ZM172.174 21.8418C172.813 21.2248 173.171 20.3937 173.171 19.487C173.171 18.5677 172.806 17.7366 172.174 17.1196C171.536 16.5025 170.663 16.1563 169.712 16.1563C168.774 16.1563 167.915 16.5088 167.276 17.1196C166.625 17.7492 166.254 18.5803 166.254 19.487C166.254 20.3937 166.638 21.2248 167.276 21.8418C167.915 22.4588 168.774 22.8303 169.712 22.8303C170.663 22.8303 171.543 22.4588 172.174 21.8418Z" fill="white"></path>
    <path d="M181.207 23.5796C180.093 22.5533 179.436 21.0926 179.436 19.5374V19.5248C179.436 19.5122 179.436 19.5122 179.449 19.5122V19.4996C179.436 19.4996 179.436 19.4996 179.436 19.487C179.436 17.9067 180.1 16.4711 181.207 15.3944C182.308 14.3304 183.813 13.707 185.454 13.707C187.037 13.707 188.515 14.2485 189.512 15.2496C189.798 15.5267 189.961 15.8541 189.974 16.2004C189.974 16.553 189.837 16.8489 189.577 17.0818C189.303 17.3085 189.03 17.4281 188.743 17.4281C188.359 17.4281 188.007 17.2141 187.61 16.9118C186.913 16.3704 186.177 16.1374 185.311 16.1374C184.399 16.1374 183.539 16.5467 182.927 17.1889C182.327 17.8185 181.989 18.637 181.989 19.4555L181.976 19.4807L181.989 19.4933C181.989 20.3118 182.327 21.1241 182.914 21.7348C183.513 22.377 184.327 22.7737 185.232 22.7863C186.131 22.8241 186.893 22.6037 187.603 22.0118C188.001 21.7096 188.352 21.5081 188.717 21.5081C189.017 21.5081 189.303 21.6278 189.577 21.8607C189.837 22.0874 189.974 22.377 189.974 22.7296C189.961 23.0822 189.798 23.4033 189.512 23.6804C188.515 24.6815 187.043 25.223 185.454 25.223C183.813 25.2356 182.301 24.6311 181.207 23.5796Z" fill="white"></path>
    <path d="M194.802 23.5544C193.688 22.4903 193.043 21.0422 193.043 19.487C193.043 17.9318 193.694 16.4711 194.802 15.407C195.915 14.3429 197.413 13.7322 199.022 13.7322C200.618 13.7322 202.103 14.3492 203.217 15.3944C204.331 16.4459 204.988 17.8814 205.001 19.424C205.001 20.0977 204.487 20.57 203.777 20.57H195.798C196 21.2437 196.423 21.8355 196.984 22.2574C197.544 22.6918 198.267 22.9185 199.016 22.9185C199.98 22.9185 200.716 22.6288 201.25 22.0622C201.51 21.8544 201.784 21.76 202.07 21.76C202.207 21.76 202.344 21.7851 202.481 21.8355C202.715 21.9174 202.917 22.0874 203.08 22.3392C203.217 22.547 203.295 22.7737 203.295 23.0129C203.295 23.3655 203.132 23.6614 202.819 23.9196C202.37 24.3163 201.882 24.6311 201.347 24.8388C200.683 25.0907 199.901 25.2229 199.016 25.2229C197.413 25.2355 195.915 24.6185 194.802 23.5544ZM202.442 18.574C202.253 17.8374 201.842 17.1951 201.256 16.7544C200.644 16.2822 199.869 16.0303 199.061 16.0303C198.228 16.0303 197.498 16.2696 196.892 16.7544C196.306 17.2266 195.896 17.85 195.733 18.574H202.442Z" fill="white"></path>
  </g>
  <defs>
    <clipPath id="clip0_6549_16113">
      <rect width="205" height="34" fill="white"></rect>
    </clipPath>
  </defs>
</svg>
